PathFileType	4	(X/Y/Z)	c:/Users/goper/Files/vsCode/490R/osim_files/A01/A01_PWS_06.trc
DataRate	CameraRate	NumFrames	NumMarkers	Units                	OrigDataRate	OrigDataStartFrame	OrigNumFrames
120.00	120.00	6	36	mm	120.0	852	1135
                Frame#	Time	Mobility_markerset:LPSIS			Mobility_markerset:LASIS			Mobility_markerset:LTH1			Mobility_markerset:LTH2			Mobility_markerset:LTH3			Mobility_markerset:LTH4			Mobility_markerset:LLFE			Mobility_markerset:LMFE			Mobility_markerset:LSH1			Mobility_markerset:LSH2			Mobility_markerset:LSH3			Mobility_markerset:LSH4			Mobility_markerset:LLMAL			Mobility_markerset:LMMAL			Mobility_markerset:LCAL			Mobility_markerset:LMTP5			Mobility_markerset:LTOE			Mobility_markerset:LMTP1			Mobility_markerset:RPSIS			Mobility_markerset:RASIS			Mobility_markerset:RTH1			Mobility_markerset:RTH2			Mobility_markerset:RTH3			Mobility_markerset:RTH4			Mobility_markerset:RLFE			Mobility_markerset:RMFE			Mobility_markerset:RSH1			Mobility_markerset:RSH2			Mobility_markerset:RSH3			Mobility_markerset:RSH4			Mobility_markerset:RLMAL			Mobility_markerset:RMMAL			Mobility_markerset:RCAL			Mobility_markerset:RMTP1			Mobility_markerset:RTOE			Mobility_markerset:RMTP5		
		X1	Y1	Z1	X2	Y2	Z2	X3	Y3	Z3	X4	Y4	Z4	X5	Y5	Z5	X6	Y6	Z6	X7	Y7	Z7	X8	Y8	Z8	X9	Y9	Z9	X10	Y10	Z10	X11	Y11	Z11	X12	Y12	Z12	X13	Y13	Z13	X14	Y14	Z14	X15	Y15	Z15	X16	Y16	Z16	X17	Y17	Z17	X18	Y18	Z18	X19	Y19	Z19	X20	Y20	Z20	X21	Y21	Z21	X22	Y22	Z22	X23	Y23	Z23	X24	Y24	Z24	X25	Y25	Z25	X26	Y26	Z26	X27	Y27	Z27	X28	Y28	Z28	X29	Y29	Z29	X30	Y30	Z30	X31	Y31	Z31	X32	Y32	Z32	X33	Y33	Z33	X34	Y34	Z34	X35	Y35	Z35	X36	Y36	Z36

852	7.09167	0.00000	0.00000	0.00000	-3162.01172	1012.91553	398.85349	-3136.02368	681.73572	452.29669	-3155.51929	642.24048	443.22113	-3191.64648	707.11475	448.08444	-3203.20850	664.28436	434.52701	-3209.08667	542.93475	396.56601	-3220.95508	555.77625	258.95087	-3187.28564	376.66714	379.12906	-3193.63550	330.05396	382.98770	-3249.58472	377.56958	376.05511	-3244.83765	331.93848	376.03271	-3229.07690	89.87086	348.54172	-3219.40259	90.97876	270.05029	-3148.97388	58.04412	309.82312	-3374.11792	47.11372	365.43878	-3397.74365	73.58791	298.28448	-3381.74170	59.76855	265.08041	-2901.16064	1026.88562	237.54756	-3124.60059	975.96631	142.70047	-2938.28027	661.99188	84.46339	-2943.52124	618.02551	88.78211	-3000.32349	658.61877	78.85849	-2994.83569	616.95081	81.80897	-2962.98657	472.20117	117.92623	-2987.83911	478.37421	239.62526	0.00000	0.00000	0.00000	-2731.54028	341.14444	129.55115	-2802.86841	334.19769	118.31177	-2768.34570	304.89926	120.24576	-2632.20923	189.54803	162.06406	-2667.93286	189.61436	242.59288	-2579.21069	208.44254	215.31953	-2707.41406	56.29130	261.62234	-2738.93848	57.23983	215.23634	-2680.28003	48.79526	149.11774
853	7.10000	0.00000	0.00000	0.00000	-3171.53418	1014.78687	400.26038	-3143.23682	681.81842	453.45041	-3162.87939	642.29388	444.21530	-3199.18335	706.86536	449.78519	-3210.27759	664.05298	436.12946	-3215.45190	542.94611	397.45642	-3227.33862	555.89893	259.85638	-3191.41772	377.03735	379.79422	-3197.39185	330.36612	383.62146	-3253.86304	377.08334	376.63211	-3248.65576	331.59677	376.55936	-3229.88452	89.69828	348.61615	-3220.02563	90.94658	270.22192	-3149.36719	58.56720	309.91992	-3374.28784	46.07872	365.23691	-3398.13867	72.13828	298.49240	-3382.15625	58.71109	265.02722	-2910.72388	1026.72644	238.06348	-3134.23584	977.02539	144.83994	-2953.43311	659.75836	83.78383	-2958.92969	616.06580	87.78461	-3015.43750	657.66772	78.23537	-3012.10620	616.48071	81.48033	-2981.79224	470.03073	115.73021	-3006.85034	476.05264	237.43526	-2776.99194	379.69788	126.77644	-2747.24341	345.13373	128.15941	-2817.91943	336.42850	116.69411	-2782.83789	307.84943	118.54025	-2643.76025	197.30786	161.06323	-2679.71411	195.53267	241.25430	-2592.28442	219.62221	214.12503	-2711.37939	59.90132	261.59052	-2742.37671	58.10881	214.62451	-2683.18188	53.04735	148.89372
854	7.10833	0.00000	0.00000	0.00000	-3180.91699	1016.57196	401.74945	-3150.11353	681.65656	454.62714	-3169.15405	642.20496	445.03006	-3206.30347	706.42725	451.42905	-3217.01782	663.62964	437.59848	-3221.51660	542.92047	398.34818	-3233.31714	555.95154	260.69617	-3195.71924	377.24466	380.48941	-3200.89087	330.56064	384.13101	-3258.13794	376.67331	377.18442	-3252.24390	331.24326	377.06589	-3230.07886	89.61413	348.73209	-3220.75635	91.05861	270.34491	-3150.51221	58.64898	310.14200	-3374.62036	45.28777	365.22794	-3398.81982	71.18232	298.33920	-3382.87671	57.86147	264.95752	-2920.35938	1026.40845	238.71472	-3143.68359	978.01385	147.00607	-2969.11646	657.21124	82.83150	-2975.07397	613.69965	86.65830	-3030.49707	656.68805	77.69636	-3028.39648	615.38776	80.40455	-3001.11133	468.03683	113.74136	-3026.36841	473.34692	235.20317	-2793.11621	383.36566	125.39827	-2763.09204	349.53607	126.75697	-2834.37354	338.76364	115.22416	-2798.07788	311.35428	116.78342	-2656.15503	205.06355	159.98923	-2692.06348	202.07504	240.20107	-2606.43262	231.19524	212.66017	-2716.24902	64.54771	261.25052	-2747.03198	60.28012	214.36632	-2686.88770	58.15203	148.76312
855	7.11667	0.00000	0.00000	0.00000	-3190.02441	1018.17145	403.25519	-3156.86963	681.52557	455.85883	-3176.08301	641.14203	445.14648	-3213.65259	706.17822	452.90659	-3223.48828	663.13373	438.97467	-3227.32104	542.84637	399.23633	-3238.98926	555.96863	261.55203	-3199.29199	377.55652	381.00296	-3204.23633	330.81363	384.67166	-3261.91748	376.22626	377.77960	-3255.56787	330.90106	377.51685	-3230.41724	89.62615	348.78387	-3221.13086	91.11826	270.34436	-3149.95190	59.17947	310.18167	-3374.80371	45.00808	365.04315	-3399.24854	70.54318	298.11517	-3383.21436	57.62548	265.30011	-2928.99170	1026.29126	239.25864	-3152.98120	978.86810	149.00771	-2984.84644	654.67505	81.88936	-2991.60913	611.36523	85.38294	-3045.60547	655.60211	77.09830	-3043.83154	613.83820	78.60347	-3020.27100	466.37637	111.79153	-3047.41211	470.85193	233.27625	0.00000	0.00000	0.00000	-2778.94678	354.53415	125.58518	-2850.38867	341.39499	113.64542	-2812.52026	315.48801	114.56360	-2669.39404	213.31250	158.86952	-2705.31274	208.87456	239.18758	-2621.88696	242.68753	211.18823	-2721.97144	69.82697	260.66589	-2751.34692	62.04580	213.46262	-2690.89160	63.87457	148.56596
856	7.12500	0.00000	0.00000	0.00000	-3199.01685	1019.57507	404.74243	-3163.39160	681.36780	457.00336	-3182.43115	641.08929	446.22656	-3220.37891	705.75000	454.25580	-3230.67554	664.10419	437.54953	-3232.70996	542.71112	400.02835	-3244.45532	556.00897	262.29752	-3203.25098	377.66629	381.69467	-3210.66748	332.57581	386.23569	-3265.55811	375.81659	378.31168	-3258.85522	330.57047	377.95987	-3230.78271	89.63873	348.89456	-3221.31372	91.22616	270.39325	-3150.19897	59.46146	310.28958	-3375.08594	44.66729	365.09872	-3399.43701	69.91961	298.07196	-3383.45386	57.10390	265.25119	-2938.75732	1025.59888	240.03891	-3162.14819	979.64215	150.85315	-3000.34790	652.12170	80.93047	-3009.06274	608.83557	84.23909	-3060.93359	654.89459	76.33053	-3061.23560	613.49908	78.32907	-3039.48853	465.28149	110.00560	-3068.96558	469.03333	230.44421	-2827.41211	390.07840	124.65050	-2795.77026	359.25525	124.53257	-2866.01758	344.57718	112.06194	-2830.32983	318.07608	114.90318	-2683.52930	221.28802	157.68962	-2719.21777	215.75430	238.17644	-2638.34180	253.84285	209.65643	-2728.77173	75.69000	259.76639	-2756.96265	64.63976	212.83636	-2695.56836	70.19955	148.44803
857	7.13333	0.00000	0.00000	0.00000	-3207.67749	1020.67072	406.19919	-3169.79346	681.34857	458.11725	-3188.66968	641.08075	447.30856	-3226.61353	705.39703	455.42007	-3237.10986	663.97595	438.80359	-3237.85693	542.56732	400.80206	-3249.58008	555.96606	263.09116	-3206.73486	377.86136	382.26440	0.00000	0.00000	0.00000	-3269.12427	375.12552	379.08966	-3261.78394	330.23032	378.42657	-3231.13574	89.66944	348.98584	-3221.68408	91.31429	270.44385	-3151.41602	59.28518	310.62491	-3375.33325	44.41044	364.99548	-3399.58228	69.31980	298.08353	-3383.71167	56.73097	265.20285	-2946.11938	1025.33582	240.83871	-3171.05713	980.14032	152.54756	-3015.40234	649.93530	79.93424	-3025.41162	606.98248	82.97935	-3078.79346	654.31622	73.88426	-3077.79883	613.09357	77.32447	-3058.01123	464.64264	109.29825	-3088.60718	466.84366	227.94368	-2847.14331	394.87250	122.22773	-2813.26904	364.30792	122.98166	-2883.70288	347.51614	110.56773	-2845.91455	322.32233	113.44664	-2698.16772	229.25191	156.47971	-2734.13379	222.32999	236.62442	-2656.22681	264.58011	208.47014	-2736.54028	81.47079	258.80682	-2763.52002	66.87538	211.92052	-2701.84937	77.35869	148.34254
